HIERARCHY
ROOT RootJoint
{
    OFFSET   0.000000   0.000000   0.000000
    CHANNELS 6 Xposition Yposition Zposition Xrotation Yrotation Zrotation
    JOINT pelvis_lowerback
    {
        OFFSET   0.000000   0.093605   0.000000
        CHANNELS 3 Xrotation Yrotation Zrotation
        JOINT lowerback_torso
        {
            OFFSET   0.000000   0.100000   0.000000
            CHANNELS 3 Xrotation Yrotation Zrotation
            JOINT torso_head
            {
                OFFSET   0.000000   0.282350   0.000000
                CHANNELS 3 Xrotation Yrotation Zrotation
                End Site
                {
                    OFFSET   0.000000   0.192650   0.000000
                }
            }
            JOINT rTorso_Clavicle
            {
                OFFSET  -0.001000   0.157500   0.000000
                CHANNELS 3 Xrotation Yrotation Zrotation
                JOINT rShoulder
                {
                    OFFSET  -0.117647   0.000000   0.000000
                    CHANNELS 3 Xrotation Yrotation Zrotation
                    JOINT rElbow
                    {
                        OFFSET  -0.245000   0.000000   0.000000
                        CHANNELS 3 Xrotation Yrotation Zrotation
                        JOINT rWrist
                        {
                            OFFSET  -0.240000   0.000000   0.000000
                            CHANNELS 3 Xrotation Yrotation Zrotation
                            End Site
                            {
                                OFFSET  -0.116353  -0.002500   0.000000
                            }
                        }
                    }
                }
            }
            JOINT lTorso_Clavicle
            {
                OFFSET   0.001000   0.157500   0.000000
                CHANNELS 3 Xrotation Yrotation Zrotation
                JOINT lShoulder
                {
                    OFFSET   0.117647   0.000000   0.000000
                    CHANNELS 3 Xrotation Yrotation Zrotation
                    JOINT lElbow
                    {
                        OFFSET   0.245000   0.000000   0.000000
                        CHANNELS 3 Xrotation Yrotation Zrotation
                        JOINT lWrist
                        {
                            OFFSET   0.240000   0.000000   0.000000
                            CHANNELS 3 Xrotation Yrotation Zrotation
                            End Site
                            {
                                OFFSET   0.116353  -0.002500   0.000000
                            }
                        }
                    }
                }
            }
        }
    }
    JOINT rHip
    {
        OFFSET  -0.100000  -0.051395   0.000000
        CHANNELS 3 Xrotation Yrotation Zrotation
        JOINT rKnee
        {
            OFFSET   0.000000  -0.410000   0.000000
            CHANNELS 3 Xrotation Yrotation Zrotation
            JOINT rAnkle
            {
                OFFSET   0.000000  -0.390000   0.000000
                CHANNELS 3 Xrotation Yrotation Zrotation
                JOINT rToeJoint
                {
                    OFFSET   0.000000  -0.050000   0.130000
                    CHANNELS 3 Xrotation Yrotation Zrotation
                    End Site
                    {
                        OFFSET  -0.010000   0.002000   0.060000
                    }
                }
            }
        }
    }
    JOINT lHip
    {
        OFFSET   0.100000  -0.051395   0.000000
        CHANNELS 3 Xrotation Yrotation Zrotation
        JOINT lKnee
        {
            OFFSET   0.000000  -0.410000   0.000000
            CHANNELS 3 Xrotation Yrotation Zrotation
            JOINT lAnkle
            {
                OFFSET   0.000000  -0.390000   0.000000
                CHANNELS 3 Xrotation Yrotation Zrotation
                JOINT lToeJoint
                {
                    OFFSET   0.000000  -0.050000   0.130000
                    CHANNELS 3 Xrotation Yrotation Zrotation
                    End Site
                    {
                        OFFSET   0.010000   0.002000   0.060000
                    }
                }
            }
        }
    }
}
MOTION
Frames: 14
Frame Time:   0.008333
 -2.376719   0.925631   3.975860   0.000000   0.000000   0.000000   0.000000   0.000000   0.000000   0.000000   0.000000   0.000000   0.000000   0.000000   0.000000   0.000000   0.000000   0.000000   0.000000   0.000000   0.000000   0.000000   0.000000   0.000000   0.000000   0.000000   0.000000   0.000000   0.000000   0.000000   0.000000   0.000000   0.000000   0.000000   0.000000   0.000000   0.000000   0.000000   0.000000   0.000000   0.000000   0.000000   0.000000   0.000000   0.000000   0.000000   0.000000   0.000000   0.000000   0.000000   0.000000   0.000000   0.000000   0.000000   0.000000   0.000000   0.000000   0.000000   0.000000   0.000000   0.000000   0.000000   0.000000
 -2.376520   0.926141   3.975668   0.119445   0.157824   0.033744  -0.134628  -0.036000  -0.008047   0.105633  -0.128483  -0.006999  -0.106272   0.027074   0.027485   0.170383  -0.374990   0.199048   0.412194   0.103121   2.189035   0.018361   0.871699  -0.005214   0.148209  -0.173194  -2.714057   0.204968   0.410542  -0.257584   0.788049  -0.031857  -2.144510   0.029437  -1.405940   0.013559   0.234695   0.302626   2.688227  -0.531294  -0.246796  -0.217216   1.241528   0.001958  -0.000996  -1.035277  -0.517727  -0.037004  -0.201883  -0.000387   0.001067  -0.483690  -0.348127   0.092247   1.071537  -0.001213  -0.001767  -0.971885   0.117578   0.172425   0.271040  -0.000706  -0.000172
 -2.376247   0.927017   3.975677   0.185371   0.345581   0.066942  -0.262660  -0.085553  -0.002569   0.235726  -0.275746  -0.006656  -0.188682   0.053031   0.057144   0.338479  -0.751491   1.098166   0.812371   0.216881   4.937378   0.041774   1.706969  -0.008800   0.325445  -0.115967  -4.707394   0.409711   0.794672  -1.220958   1.557548  -0.117436  -4.855861   0.067359  -2.760407   0.023327   0.514198   0.223993   4.655666  -1.010905  -0.490080  -0.582969   2.546140   0.005244  -0.001632  -1.999797  -1.010265  -0.083598  -0.424668  -0.001044   0.001918  -0.876550  -0.684947   0.299118   2.190536  -0.003440  -0.002772  -1.879711   0.225814   0.335628   0.481042  -0.001314  -0.000205
 -2.375936   0.927861   3.975852   0.243151   0.540258   0.094287  -0.402992  -0.145638   0.013931   0.349583  -0.429577   0.002437  -0.262808   0.077531   0.086634   0.503444  -1.106145   2.430088   1.199626   0.343398   8.050548   0.064302   2.485678  -0.010832   0.500159  -0.018962  -5.891454   0.609192   1.137445  -2.614403   2.306901  -0.250512  -7.934712   0.104056  -4.029031   0.029514   0.789988   0.053873   5.813032  -1.456477  -0.715305  -1.060128   3.787813   0.008912  -0.002073  -2.899067  -1.471232  -0.136339  -0.630893  -0.001736   0.002423  -1.203737  -0.999019   0.608022   3.261454  -0.006065  -0.003105  -2.726671   0.326208   0.490189   0.668850  -0.001869  -0.000180
 -2.375607   0.928386   3.976152   0.302701   0.729005   0.115749  -0.553135  -0.211824   0.038282   0.440891  -0.584233   0.018869  -0.333387   0.100464   0.115141   0.667822  -1.438505   4.009764   1.575982   0.485363  11.409434   0.083417   3.209882  -0.011751   0.665811   0.073902  -6.475264   0.805417   1.445715  -4.249822   3.038958  -0.431192 -11.258594   0.135332  -5.213503   0.033120   1.053174  -0.133518   6.371458  -1.879456  -0.921668  -1.622838   4.950453   0.012429  -0.002509  -3.739188  -1.902075  -0.193578  -0.825202  -0.002398   0.002707  -1.479376  -1.292470   1.001283   4.272356  -0.008694  -0.003040  -3.517726   0.419302   0.636564   0.835540  -0.002327  -0.000138
 -2.375281   0.928377   3.976547   0.364517   0.905221   0.132914  -0.708812  -0.281146   0.066601   0.512631  -0.736456   0.037758  -0.400799   0.121839   0.143228   0.832834  -1.750975   5.715180   1.942227   0.643300  14.933614   0.098207   3.882638  -0.011911   0.820492   0.150824  -6.650883   0.999473   1.726178  -6.013727   3.746351  -0.656076 -14.711404   0.159504  -6.318117   0.034868   1.301190  -0.316500   6.509063  -2.284160  -1.109331  -2.250254   6.035336   0.015501  -0.002992  -4.524429  -2.304495  -0.253990  -1.008232  -0.002983   0.002841  -1.710943  -1.567575   1.461838   5.224314  -0.011104  -0.002758  -4.256608   0.505474   0.775069   0.983929  -0.002675  -0.000099
 -2.375013   0.927664   3.977006   0.426958   1.067150   0.149657  -0.866131  -0.351330   0.089455   0.569417  -0.883931   0.043029  -0.464803   0.141624   0.174161   0.999376  -2.046548   7.471455   2.298595   0.816802  18.572878   0.108600   4.506989  -0.011580   0.963829   0.207624  -6.553494   1.193657   1.984700  -7.869715   4.395141  -0.909683 -18.086370   0.175783  -7.348249   0.035062   1.533901  -0.491725   6.297017  -2.672329  -1.278753  -2.923689   7.046905   0.017956  -0.003498  -5.258542  -2.680191  -0.316525  -1.180349  -0.003458   0.002869  -1.904258  -1.826118   1.975561   6.120488  -0.013200  -0.002357  -4.946681   0.585078   0.905947   1.116601  -0.002920  -0.000068
 -2.374792   0.925569   3.977027   0.537008   1.154651   0.175961  -0.895042  -0.425551   0.120011   0.531636  -0.988056   0.003913  -0.652556   0.075857   0.177466   1.135254  -2.250756   8.586518   2.686939   1.003223  22.273881   0.117517   5.221249  -0.012090   1.044162   0.201218  -5.512638   1.407742   2.282461  -8.941217   4.934959  -1.229473 -21.526698   0.186109  -8.460992   0.035622   1.712652  -0.679110   5.123031  -3.229555  -1.668423  -3.540204   8.156911   0.019372  -0.007014  -5.702569  -3.188082  -0.206839  -1.142323  -0.002606   0.002015  -2.094025  -1.968742   2.406776   6.620126  -0.012621  -0.001787  -5.568814   0.720334   1.030329   1.211598  -0.002823   0.000040
 -2.374599   0.922305   3.976822   0.648185   1.232316   0.198212  -0.875756  -0.500585   0.150985   0.511412  -1.082073  -0.028130  -0.834292   0.009786   0.171216   1.253876  -2.409840   9.485469   3.029776   1.219689  25.642216   0.119873   5.898717  -0.012392   1.128473   0.247646  -4.481829   1.601623   2.541944  -9.757557   5.415156  -1.565354 -24.620791   0.186354  -9.509785   0.035510   1.887531  -0.928459   4.006782  -3.793467  -2.043408  -4.086528   9.194273   0.019423  -0.009568  -6.111625  -3.666632  -0.108676  -1.074996  -0.001838   0.001131  -2.307254  -2.100688   2.771969   7.022488  -0.011511  -0.001360  -6.153988   0.845464   1.147886   1.289406  -0.002604   0.000103
 -2.374414   0.917980   3.976489   0.752053   1.303634   0.214898  -0.825175  -0.569956   0.186285   0.512895  -1.167852  -0.048150  -0.999730  -0.052329   0.162560   1.357049  -2.540436  10.226596   3.330916   1.450380  28.716234   0.117814   6.536850  -0.012430   1.213543   0.324970  -3.620315   1.774848   2.769976 -10.398279   5.840770  -1.906151 -27.419984   0.180170 -10.493190   0.034698   2.056142  -1.196425   3.097930  -4.336527  -2.389671  -4.567196  10.153778   0.018581  -0.011130  -6.493321  -4.113516  -0.020376  -1.011132  -0.001270   0.000474  -2.535065  -2.225256   3.077279   7.376509  -0.010253  -0.001040  -6.701482   0.960333   1.258561   1.359322  -0.002349   0.000142
 -2.374295   0.917550   3.976378   0.730171   1.644961   0.395557  -0.704116  -0.734025   0.082899   0.562455  -1.324838  -0.114529  -1.142095  -0.113913   0.149483   1.464270  -2.673456  11.159409   3.603590   1.670109  31.646396   0.114431   7.120555  -0.012354   1.290948   0.347741  -2.950869   1.912916   2.934986 -11.178371   6.205622  -2.269298 -30.044984   0.172910 -11.407105   0.032774   2.218371  -1.420609   2.435453  -4.776413  -2.520985  -4.830404  11.175850   0.015260  -0.007900  -7.003294  -4.261876   0.287426  -0.827481  -0.001431   0.000380  -2.955482  -2.257742   2.889154   8.090765  -0.008100   0.001300  -6.765282   1.132833   1.216393   1.517381  -0.001840   0.000795
 -2.374231   0.917241   3.976502   0.719562   1.929157   0.575929  -0.631051  -0.840461   0.011633   0.605652  -1.447515  -0.182137  -1.270668  -0.168889   0.130264   1.574253  -2.805942  11.901599   3.852726   1.884462  34.374644   0.108784   7.669712  -0.011970   1.365913   0.387423  -2.185214   2.053696   3.108517 -11.786914   6.539227  -2.616515 -32.492598   0.162538 -12.268611   0.030076   2.371579  -1.684402   1.690492  -5.148541  -2.722560  -5.084734  12.032113   0.012389  -0.006338  -7.436001  -4.558357   0.354029  -0.758140  -0.001160   0.000142  -3.253520  -2.339169   2.688151   8.640884  -0.006353   0.002102  -7.079988   1.233769   1.291147   1.618905  -0.001531   0.000916
 -2.374277   0.916949   3.976690   0.730317   2.172409   0.742330  -0.575793  -0.916589  -0.036594   0.632596  -1.540335  -0.234628  -1.395572  -0.219441   0.113587   1.675326  -2.925429  12.521238   4.074209   2.094864  36.874955   0.101686   8.183638  -0.011424   1.437898   0.434172  -1.499787   2.191791   3.284671 -12.284034   6.842941  -2.939221 -34.732730   0.150079 -13.069899   0.027053   2.514826  -1.935310   1.023946  -5.511509  -2.940602  -5.282332  12.814026   0.009743  -0.005365  -7.828134  -4.856444   0.424686  -0.698228  -0.000966  -0.000054  -3.514941  -2.421756   2.506912   9.103027  -0.005005   0.002378  -7.410474   1.323314   1.367910   1.689546  -0.001268   0.000893
 -2.374376   0.916819   3.977000   0.758685   2.327497   0.848806  -0.492363  -0.963686  -0.076468   0.582953  -1.576674  -0.181207  -1.483347  -0.295897   0.050164   1.734785  -3.088878  12.734534   4.285742   2.320224  38.812780   0.092254   8.715933  -0.010625   1.468604   0.551063  -0.099752   2.386752   3.440296 -12.400228   7.107527  -3.295256 -36.697806   0.136151 -13.923966   0.024786   2.620962  -2.134196  -0.144214  -5.667329  -3.096587  -5.418609  13.137806   0.007772  -0.004413  -8.043470  -4.952807   0.390806  -0.432889  -0.000682  -0.000322  -3.649430  -2.456305   2.396273   9.310395  -0.003981   0.002132  -7.585796   1.479088   1.488699   1.729404  -0.001055   0.000813
